<?xml version="1.0" encoding="UTF-8" standalone="no"?>
<!-- Generator: Adobe Illustrator 22.0.0, SVG Export Plug-In . SVG Version: 6.00 Build 0)  -->

<svg
   version="1.1"
   id="lni_lni-folder"
   x="0px"
   y="0px"
   viewBox="0 0 20.752057 17.527772"
   xml:space="preserve"
   sodipodi:docname="folder-icon.svg"
   inkscape:version="1.3.2 (091e20e, 2023-11-25, custom)"
   width="20.752058"
   height="17.527773"
   xmlns:inkscape="http://www.inkscape.org/namespaces/inkscape"
   xmlns:sodipodi="http://sodipodi.sourceforge.net/DTD/sodipodi-0.dtd"
   xmlns="http://www.w3.org/2000/svg"
   xmlns:svg="http://www.w3.org/2000/svg"><defs
   id="defs1" /><sodipodi:namedview
   id="namedview1"
   pagecolor="#ffffff"
   bordercolor="#000000"
   borderopacity="0.25"
   inkscape:showpageshadow="2"
   inkscape:pageopacity="0.0"
   inkscape:pagecheckerboard="0"
   inkscape:deskcolor="#d1d1d1"
   inkscape:zoom="4.2890625"
   inkscape:cx="10.375228"
   inkscape:cy="7.5774135"
   inkscape:window-width="1360"
   inkscape:window-height="745"
   inkscape:window-x="-8"
   inkscape:window-y="-8"
   inkscape:window-maximized="1"
   inkscape:current-layer="lni_lni-folder" />
<path
   d="m 13.005624,4.493421 v -1.13193 c 0,-1.166231 -0.593162,-2.092357 -1.340107,-2.092357 H 6.7884083 L 6.7225013,0.994727 C 6.5687182,0.37731 6.1952463,0 5.7778365,0 H 1.3401063 C 0.59316195,0 0,0.926125 0,2.092357 v 13.343059 c 0,1.16623 0.59316195,2.092356 1.3401063,2.092356 H 11.951113 c 0.746945,0 1.340107,-0.926126 1.340107,-2.092356 V 5.55675 c 0,-0.411611 -0.109845,-0.788921 -0.285596,-1.063329 z M 11.665517,2.778375 c 0.197721,0 0.351503,0.240106 0.351503,0.548815 V 3.978907 H 7.4914153 L 7.1838492,2.778375 Z m 0.6371,12.657041 c 0,0.308707 -0.153783,0.548814 -0.351504,0.548814 H 1.3401063 c -0.1977204,0 -0.35150283,-0.240107 -0.35150283,-0.548814 V 2.058056 c 0,-0.308709 0.15378243,-0.548815 0.35150283,-0.548815 l 4.4596985,0.0343 0.9007275,3.498694 c 0.065908,0.308708 0.2636274,0.480213 0.4613479,0.480213 h 5.1187678 c 0,0 0.02197,0 0.02197,0.0343 z"
   id="path1"
   style="stroke-width:0.27451" />
<path
   style="fill:#008080;fill-opacity:1;stroke:none;stroke-width:0.518759;stroke-opacity:1"
   d="M 0.95569831,16.010141 1.0003268,1.869057 1.1027679,1.649131 1.2052103,1.529172 l 0.1408569,-0.01999 4.4473495,0.02887 0.92124,3.569916 0.035213,0.09997 0.038416,0.07498 0.054421,0.07497 0.051219,0.05498 0.054421,0.04498 0.076832,0.03998 0.064029,0.02 0.073631,0.005 5.1316913,0.005 0.0069,9.942597 0.0024,0.127237 -0.0021,0.393507"
   id="path2"
   sodipodi:nodetypes="ccccccccccccccccccc" /><path
   style="fill:#008080;fill-opacity:1;stroke:none;stroke-width:0.518759;stroke-opacity:1"
   d="m 7.1742535,2.775067 0.3169133,1.194607 4.5216522,0.01867 0.0064,-0.759743 -0.04802,-0.214927 -0.137656,-0.174941 -0.07043,-0.06498 z"
   id="path3"
   sodipodi:nodetypes="cccccccc" /><style
   type="text/css"
   id="style1">
	.st0{fill:#EE8422;}
	.st1{fill:#FAAE1C;}
	.st2{display:none;opacity:0.5;fill:#FFC73C;}
	.st3{fill:#FFFFFF;}
</style></svg>
