<?xml version="1.0" encoding="UTF-8" standalone="no"?>
<!-- Generator: Adobe Illustrator 22.0.0, SVG Export Plug-In . SVG Version: 6.00 Build 0)  -->

<svg
   version="1.1"
   id="lni_lni-folder"
   x="0px"
   y="0px"
   viewBox="0 0 34.000156 28.717485"
   xml:space="preserve"
   sodipodi:docname="folder-icon.svg"
   inkscape:version="1.3.2 (091e20e, 2023-11-25, custom)"
   width="34.000156"
   height="28.717485"
   xmlns:inkscape="http://www.inkscape.org/namespaces/inkscape"
   xmlns:sodipodi="http://sodipodi.sourceforge.net/DTD/sodipodi-0.dtd"
   xmlns="http://www.w3.org/2000/svg"
   xmlns:svg="http://www.w3.org/2000/svg"><defs
   id="defs1" /><sodipodi:namedview
   id="namedview1"
   pagecolor="#ffffff"
   bordercolor="#000000"
   borderopacity="0.25"
   inkscape:showpageshadow="2"
   inkscape:pageopacity="0.0"
   inkscape:pagecheckerboard="0"
   inkscape:deskcolor="#d1d1d1"
   inkscape:zoom="4.2890625"
   inkscape:cx="47.213115"
   inkscape:cy="37.187614"
   inkscape:window-width="1344"
   inkscape:window-height="729"
   inkscape:window-x="120"
   inkscape:window-y="29"
   inkscape:window-maximized="0"
   inkscape:current-layer="lni_lni-folder" />
<path
   d="M 33.269573,7.362017 V 5.507463 c 0,-1.910752 -1.517362,-3.4281147 -3.428115,-3.4281147 H 17.365368 L 17.196773,1.6297595 C 16.803382,0.6181846 15.848006,0 14.780233,0 H 3.4281148 C 1.5173623,0 0,1.5173623 0,3.4281148 V 25.289372 c 0,1.910752 1.5173623,3.428114 3.4281148,3.428114 H 30.57204 c 1.910753,0 3.428115,-1.517362 3.428115,-3.428114 V 9.104174 c 0,-0.674383 -0.280993,-1.292568 -0.730582,-1.742157 z m -3.428115,-2.80993 c 0.505788,0 0.899178,0.39339 0.899178,0.899178 V 6.519038 H 19.163724 L 18.376943,4.552087 Z m 1.62976,20.737285 c 0,0.505787 -0.39339,0.899177 -0.899178,0.899177 H 3.4281148 c -0.5057874,0 -0.8991776,-0.39339 -0.8991776,-0.899177 V 3.3719162 c 0,-0.5057874 0.3933902,-0.8991777 0.8991776,-0.8991777 l 11.4083162,0.056199 2.304143,5.7322575 c 0.168596,0.505787 0.674383,0.78678 1.180171,0.78678 h 13.094274 c 0,0 0.0562,0 0.0562,0.0562 v 16.185198 z"
   id="path1"
   style="stroke-width:0.561986" />
<path
   style="fill:#008080;fill-opacity:1;stroke:none;stroke-width:1.06202;stroke-opacity:1"
   d="M 2.4447631,26.231003 2.5589303,3.0622608 2.8209857,2.7019344 3.0830412,2.5053933 l 0.3603262,-0.032758 11.3767256,0.047302 2.356616,5.8489477 0.09008,0.163784 0.09827,0.122839 0.139216,0.122839 0.131028,0.09008 0.139217,0.0737 0.196542,0.06551 0.163784,0.03276 0.188353,0.0082 13.127338,0.0082 0.0177,16.289944 0.0062,0.208465 -0.0054,0.644721"
   id="path2"
   sodipodi:nodetypes="ccccccccccccccccccc" /><path
   style="fill:#008080;fill-opacity:1;stroke:none;stroke-width:1.06202;stroke-opacity:1"
   d="m 18.352397,4.546667 0.810692,1.957244 11.566799,0.03058 0.01638,-1.244763 -0.122839,-0.352137 -0.352137,-0.286623 -0.180163,-0.10646 z"
   id="path3"
   sodipodi:nodetypes="cccccccc" /></svg>
